<mxfile host="app.diagrams.net" agent="Mozilla/5.0 (Windows NT 10.0; Win64; x64) AppleWebKit/537.36 (KHTML, like Gecko) Chrome/137.0.0.0 Safari/537.36" version="27.1.6">
  <diagram name="Página-1" id="VsksBuC0ZVL9nokk-JWB">
    <mxGraphModel dx="1042" dy="562" grid="1" gridSize="10" guides="1" tooltips="1" connect="1" arrows="1" fold="1" page="1" pageScale="1" pageWidth="827" pageHeight="1169" math="0" shadow="0">
      <root>
        <mxCell id="0" />
        <mxCell id="1" parent="0" />
        <mxCell id="zEVH8WpI-xVYA9jF-yKD-4" value="" style="edgeStyle=orthogonalEdgeStyle;rounded=0;orthogonalLoop=1;jettySize=auto;html=1;" edge="1" parent="1" source="zEVH8WpI-xVYA9jF-yKD-1" target="zEVH8WpI-xVYA9jF-yKD-3">
          <mxGeometry relative="1" as="geometry" />
        </mxCell>
        <mxCell id="zEVH8WpI-xVYA9jF-yKD-1" value="INÍCIO" style="ellipse;whiteSpace=wrap;html=1;aspect=fixed;" vertex="1" parent="1">
          <mxGeometry x="30" y="30" width="80" height="80" as="geometry" />
        </mxCell>
        <mxCell id="zEVH8WpI-xVYA9jF-yKD-6" value="" style="edgeStyle=orthogonalEdgeStyle;rounded=0;orthogonalLoop=1;jettySize=auto;html=1;" edge="1" parent="1" source="zEVH8WpI-xVYA9jF-yKD-3" target="zEVH8WpI-xVYA9jF-yKD-5">
          <mxGeometry relative="1" as="geometry" />
        </mxCell>
        <mxCell id="zEVH8WpI-xVYA9jF-yKD-3" value="main.py" style="whiteSpace=wrap;html=1;" vertex="1" parent="1">
          <mxGeometry x="170" y="40" width="120" height="60" as="geometry" />
        </mxCell>
        <mxCell id="zEVH8WpI-xVYA9jF-yKD-5" value="Para cada satélite capiture" style="whiteSpace=wrap;html=1;" vertex="1" parent="1">
          <mxGeometry x="170" y="180" width="120" height="60" as="geometry" />
        </mxCell>
      </root>
    </mxGraphModel>
  </diagram>
</mxfile>
